# File created by Blade
# Date/Time:  Tue Sep 30 19:10:51 2014
#---------------------------------------------------------
:version 1.10
:name HOM
:units
  mass 1.0
  length 1.000000
  angle deg
:documentation
     Acclaim Skeleton File
:root
   axis xyz
   order TX TY TZ RX RY RZ
   position 0.000000 0.000000 0.000000
   orientation 0 0 0
:bonedata
   begin
      id 1
      name Spine_dum
      direction 0.000000 1.000000 0.000000
      length 7.508948
      axis 0.0 0.0 0.0 xyz
   end
   begin
      id 2
      name LeftUpLeg_dum
      direction 1.000000 0.000000 0.000000
      length 3.000560
      axis 0.0 0.0 0.0 xyz
   end
   begin
      id 3
      name RightUpLeg_dum
      direction -1.000000 0.000000 0.000000
      length 3.000560
      axis 0.0 0.0 0.0 xyz
   end
   begin
      id 4
      name Spine
      direction 0.000000 1.000000 0.000000
      length 0.000000
      axis 0.0 0.0 0.0 xyz
      dof rx ry rz
   end
   begin
      id 5
      name Spine_dum1
      direction 0.000000 1.000000 0.000000
      length 13.861154
      axis 0.0 0.0 0.0 xyz
   end
   begin
      id 6
      name Spine_dum2
      direction 0.000000 1.000000 0.000000
      length 8.204781
      axis 0.0 0.0 0.0 xyz
   end
   begin
      id 7
      name Spine_dum3
      direction 0.000000 1.000000 0.000000
      length 8.204781
      axis 0.0 0.0 0.0 xyz
   end
   begin
      id 8
      name Head
      direction 0.000000 1.000000 0.000000
      length 4.527550
      axis 0.0 0.0 0.0 xyz
      dof rx ry rz
   end
   begin
      id 9
      name LeftShoulder
      direction 1.000000 0.000000 0.000000
      length 6.635956
      axis 0.0 0.0 -90.0 xyz
      dof rx ry rz
   end
   begin
      id 10
      name LeftArm
      direction 1.000000 0.000000 0.000000
      length 10.274218
      axis 0.0 0.0 -90.0 xyz
      dof rx ry rz
   end
   begin
      id 11
      name LeftForeArm
      direction 1.000000 0.000000 0.000000
      length 8.522147
      axis 0.0 0.0 -90.0 xyz
      dof ry rz rx
   end
   begin
      id 12
      name LeftHand
      direction 0.000000 0.000000 0.000000
      length 0.000000
      axis 0.0 0.0 -90.0 xyz
      dof rx ry rz
   end
   begin
      id 13
      name LeftHand_dum1
      direction 0.000000 0.000000 0.000000
      length 0.000000
      axis 0.0 0.0 -90.0 xyz
   end
   begin
      id 14
      name LeftHand_dum2
      direction 1.000000 0.000000 0.000000
      length 3.937000
      axis 0.0 0.0 -90.0 xyz
   end
   begin
      id 15
      name LeftHandThumb1
      direction 0.000000 0.000000 1.000000
      length 3.937000
      axis 0.0 0.0 -90.0 xyz
      dof rx rz ry
   end
   begin
      id 16
      name RightShoulder
      direction -1.000000 0.000000 0.000000
      length 6.635956
      axis 0.0 0.0 90.0 xyz
      dof rx ry rz
   end
   begin
      id 17
      name RightArm
      direction -1.000000 0.000000 0.000000
      length 10.274218
      axis 0.0 0.0 90.0 xyz
      dof rx ry rz
   end
   begin
      id 18
      name RightForeArm
      direction -1.000000 0.000000 0.000000
      length 8.522147
      axis 0.0 0.0 90.0 xyz
      dof ry rz rx
   end
   begin
      id 19
      name RightHand
      direction 0.000000 0.000000 0.000000
      length 0.000000
      axis 0.0 0.0 90.0 xyz
      dof rx ry rz
   end
   begin
      id 20
      name RightHand_dum1
      direction 0.000000 0.000000 0.000000
      length 0.000000
      axis 0.0 0.0 90.0 xyz
   end
   begin
      id 21
      name RightHand_dum2
      direction -1.000000 0.000000 0.000000
      length 3.937000
      axis 0.0 0.0 90.0 xyz
   end
   begin
      id 22
      name RightHandThumb1
      direction 0.000000 0.000000 1.000000
      length 3.937000
      axis 0.0 0.0 90.0 xyz
      dof rx rz ry
   end
   begin
      id 23
      name LeftUpLeg
      direction 0.000000 -1.000000 0.000000
      length 16.490845
      axis 0.0 0.0 0.0 xyz
      dof rx ry rz
   end
   begin
      id 24
      name LeftLeg
      direction 0.000000 -1.000000 0.000000
      length 14.556576
      axis 0.0 0.0 0.0 xyz
      dof rx ry rz
   end
   begin
      id 25
      name LeftFoot
      direction 0.000000 -0.258819 0.965926
      length 4.831116
      axis 15.0 0.0 0.0 xyz
      dof rx ry rz
   end
   begin
      id 26
      name LeftToeBase
      direction 0.000000 0.000000 1.000000
      length 2.952750
      axis 0.0 0.0 0.0 xyz
      dof rx ry rz
   end
   begin
      id 27
      name RightUpLeg
      direction 0.000000 -1.000000 0.000000
      length 16.490845
      axis 0.0 0.0 0.0 xyz
      dof rx ry rz
   end
   begin
      id 28
      name RightLeg
      direction 0.000000 -1.000000 0.000000
      length 14.556576
      axis 0.0 0.0 0.0 xyz
      dof rx ry rz
   end
   begin
      id 29
      name RightFoot
      direction 0.000000 -0.258819 0.965926
      length 4.831116
      axis 15.0 0.0 0.0 xyz
      dof rx ry rz
   end
   begin
      id 30
      name RightToeBase
      direction 0.000000 0.000000 1.000000
      length 2.952750
      axis 0.0 0.0 0.0 xyz
      dof rx ry rz
   end
:hierarchy
   begin
      root Spine_dum LeftUpLeg_dum RightUpLeg_dum
      Spine_dum Spine
      LeftUpLeg_dum LeftUpLeg
      RightUpLeg_dum RightUpLeg
      Spine Spine_dum1 Spine_dum2 Spine_dum3
      Spine_dum1 Head
      Spine_dum2 LeftShoulder
      Spine_dum3 RightShoulder
      LeftShoulder LeftArm
      LeftArm LeftForeArm
      LeftForeArm LeftHand
      LeftHand LeftHand_dum1 LeftHand_dum2
      LeftHand_dum1 LeftHandThumb1
      RightShoulder RightArm
      RightArm RightForeArm
      RightForeArm RightHand
      RightHand RightHand_dum1 RightHand_dum2
      RightHand_dum1 RightHandThumb1
      LeftUpLeg LeftLeg
      LeftLeg LeftFoot
      LeftFoot LeftToeBase
      RightUpLeg RightLeg
      RightLeg RightFoot
      RightFoot RightToeBase
   end

# File created by Blade
# Date/Time:  Wed Sep 24 19:25:39 2014
# Frame Rate: 120.000 fps
#------------------------------------------------------
:FULLY-SPECIFIED
:DEGREES
1
root -11.808611 32.784205 -4.250511 12.443082 4.314433 -1.157470
Spine -12.921054 3.740453 0.448691
Head -6.638773 -3.535790 7.509858
LeftShoulder -11.959779 21.383362 22.718669
LeftArm 16.692616 -22.953920 -33.426572
LeftForeArm 8.168339 -0.000000 18.776632
LeftHand -30.779295 -0.000000 7.179932
LeftHandThumb1 -26.253704 0.000000 33.147579
RightShoulder -19.215907 14.184757 -32.196711
RightArm -20.997299 24.857326 30.563141
RightForeArm 8.104649 -0.000000 30.147387
RightHand -9.715196 -0.000000 -27.428619
RightHandThumb1 -24.326973 -0.000000 -32.862282
LeftUpLeg -9.982664 3.407721 1.898922
LeftLeg 1.218494 -0.000000 -0.000000
LeftFoot -11.015943 5.162548 -14.239896
LeftToeBase 5.689139 -0.000000 -0.000000
RightUpLeg -11.202312 -6.418597 1.635041
RightLeg 5.384265 -0.000000 -0.000000
RightFoot -9.959761 -11.505806 -4.172933
RightToeBase 1.202313 -0.000000 -0.000000
2
root -11.807105 32.784587 -4.257747 12.478343 4.329376 -1.124120
Spine -12.910809 3.684132 0.431205
Head -6.638226 -3.527336 7.471709
LeftShoulder -12.037026 21.485567 22.486544
LeftArm 16.943433 -22.655796 -33.793251
LeftForeArm 8.003000 -0.000000 18.913543
LeftHand -30.544564 -0.000000 7.139069
LeftHandThumb1 -26.253704 0.000000 33.147579
RightShoulder -19.221073 14.046215 -31.940194
RightArm -21.262475 24.998216 31.019254
RightForeArm 8.131844 -0.000000 31.257394
RightHand -9.651061 -0.000000 -27.515010
RightHandThumb1 -24.326973 -0.000000 -32.862282
LeftUpLeg -10.023909 3.422908 1.859130
LeftLeg 1.202226 -0.000000 -0.000000
LeftFoot -10.961494 5.125348 -14.263247
LeftToeBase 5.650217 -0.000000 -0.000000
RightUpLeg -11.256790 -6.411013 1.597408
RightLeg 5.426889 -0.000000 -0.000000
RightFoot -9.965359 -11.516818 -4.269233
RightToeBase 1.223734 -0.000000 -0.000000
3
root -11.805930 32.785038 -4.265924 12.497610 4.343106 -1.114996
Spine -12.878783 3.644293 0.445354
Head -6.624391 -3.532588 7.409733
LeftShoulder -12.057479 21.613048 22.258032
LeftArm 17.150333 -22.317035 -34.165373
LeftForeArm 7.834364 -0.000000 19.103164
LeftHand -30.470698 -0.000000 6.929921
LeftHandThumb1 -26.253704 0.000000 33.147579
RightShoulder -19.238234 13.888383 -31.652106
RightArm -21.488005 25.172758 31.487497
RightForeArm 8.199741 -0.000000 32.450302
RightHand -9.631664 -0.000000 -27.185254
RightHandThumb1 -24.326973 -0.000000 -32.862282
LeftUpLeg -10.053868 3.427640 1.845537
LeftLeg 1.190816 -0.000000 -0.000000
LeftFoot -10.935284 5.107822 -14.259836
LeftToeBase 5.680341 -0.000000 -0.000000
RightUpLeg -11.318945 -6.451220 1.593318
RightLeg 5.492342 -0.000000 -0.000000
RightFoot -9.971507 -11.479472 -4.280150
RightToeBase 1.146434 -0.000000 -0.000000
4
root -11.802821 32.785383 -4.274320 12.541326 4.365810 -1.091618
Spine -12.885450 3.601401 0.444414
Head -6.603959 -3.585249 7.327151
LeftShoulder -12.048589 21.740585 22.102347
LeftArm 17.334013 -21.992881 -34.673860
LeftForeArm 7.709182 0.000000 19.378493
LeftHand -30.319223 -0.000000 6.740422
LeftHandThumb1 -26.253704 0.000000 33.147579
RightShoulder -19.267091 13.728895 -31.368518
RightArm -21.738410 25.233469 31.973475
RightForeArm 8.311183 -0.000000 33.661380
RightHand -9.323228 -0.000000 -27.491488
RightHandThumb1 -24.326973 -0.000000 -32.862282
LeftUpLeg -10.107846 3.420135 1.815472
LeftLeg 1.172145 -0.000000 -0.000000
LeftFoot -10.890329 5.083679 -14.279487
LeftToeBase 5.633093 -0.000000 -0.000000
RightUpLeg -11.374867 -6.413382 1.566380
RightLeg 5.499129 -0.000000 -0.000000
RightFoot -9.972847 -11.560958 -4.295271
RightToeBase 1.196275 -0.000000 -0.000000
